<?xml version="1.0" standalone="no"?><!DOCTYPE svg PUBLIC "-//W3C//DTD SVG 1.1//EN" "http://www.w3.org/Graphics/SVG/1.1/DTD/svg11.dtd"><svg class="icon" width="200px" height="200.00px" viewBox="0 0 1000 1000" version="1.1" xmlns="http://www.w3.org/2000/svg"><path fill="#333333" d="M553.7123 483.6781 943.428 93.9813c10.6492-10.6498 10.6492-27.9041 0-38.5559-10.6522-10.6498-27.9062-10.6498-38.5574 0L515.1558 445.1232 125.4421 55.4254c-10.6502-10.6498-27.9052-10.6498-38.5564 0-10.6512 10.6508-10.6512 27.9051 0 38.5559l389.7148 389.6968L86.8857 873.3769c-10.6512 10.6508-10.6512 27.9041 0 38.5549 5.3246 5.3244 12.3561 7.9856 19.2787 7.9856 7.0285 0 13.9511-2.6612 19.2777-7.9856l389.7128-389.6998L904.8706 911.9317c5.3266 5.3244 12.3561 7.9856 19.2777 7.9856 7.0295 0 13.9521-2.6612 19.2797-7.9856 10.6492-10.6508 10.6492-27.9041 0-38.5549L553.7123 483.6781z" /></svg>