<?xml version="1.0" standalone="no"?><!DOCTYPE svg PUBLIC "-//W3C//DTD SVG 1.1//EN" "http://www.w3.org/Graphics/SVG/1.1/DTD/svg11.dtd"><svg class="icon" width="200px" height="200.00px" viewBox="0 0 1024 1024" version="1.1" xmlns="http://www.w3.org/2000/svg"><path fill="#333333" d="M787.375791 63.280232 421.057755 63.280232c-12.754488 0-34.529421 9.020444-43.549865 18.039865L227.879034 230.948953c-9.020444 9.020444-18.040888 30.795377-18.040888 43.549865l0 658.147568c0 12.754488 12.754488 25.51 25.51 25.51l552.027645 0c12.754488 0 25.51-12.754488 25.51-25.51L812.885791 88.789209C812.884768 76.03472 800.13028 63.280232 787.375791 63.280232zM782.273587 917.340795c0 5.102205-5.102205 10.203386-10.203386 10.203386l-521.41544 0c-5.102205 0-10.203386-5.102205-10.203386-10.203386l0-642.840954c0-5.102205 3.612271-13.815657 7.214309-17.417695L403.64006 101.105722c3.602038-3.602038 12.316513-7.214309 17.417695-7.214309l351.011422 0c5.102205 0 10.203386 5.102205 10.203386 10.203386L782.272563 917.340795zM740.437759 546.941813 285.346887 546.941813c-5.102205 0-10.203386 5.102205-10.203386 10.203386l0 316.319296c0 5.102205 5.102205 10.203386 10.203386 10.203386L740.437759 883.667881c5.102205 0 10.203386-5.102205 10.203386-10.203386L750.641145 557.1452C750.641145 552.044018 745.539964 546.941813 740.437759 546.941813zM520.035 578.573231c0-5.102205 5.102205-10.203386 10.203386-10.203386l75.508741 0c5.102205 0 10.203386 5.102205 10.203386 10.203386l0 67.344804c0 5.102205-5.102205 10.203386-10.203386 10.203386l-75.508741 0c-5.102205 0-10.203386-5.102205-10.203386-10.203386L520.035 578.573231zM407.792637 578.573231c0-5.102205 5.102205-10.203386 10.203386-10.203386l75.508741 0c5.102205 0 10.203386 5.102205 10.203386 10.203386l0 67.344804c0 5.102205-5.102205 10.203386-10.203386 10.203386l-75.508741 0c-5.102205 0-10.203386-5.102205-10.203386-10.203386L407.792637 578.573231zM293.5098 578.573231c0-5.102205 5.102205-10.203386 10.203386-10.203386l75.508741 0c5.102205 0 10.203386 5.102205 10.203386 10.203386l0 67.344804c0 5.102205-5.102205 10.203386-10.203386 10.203386l-75.508741 0c-5.102205 0-10.203386-5.102205-10.203386-10.203386L293.5098 578.573231zM389.426337 855.097172c0 5.102205-5.102205 10.203386-10.203386 10.203386l-75.508741 0c-5.102205 0-10.203386-5.102205-10.203386-10.203386l0-55.100946c0-5.102205 5.102205-10.203386 10.203386-10.203386l75.508741 0c5.102205 0 10.203386 5.102205 10.203386 10.203386L389.426337 855.097172zM503.709173 855.097172c0 5.102205-5.102205 10.203386-10.203386 10.203386l-75.508741 0c-5.102205 0-10.203386-5.102205-10.203386-10.203386l0-55.100946c0-5.102205 5.102205-10.203386 10.203386-10.203386l75.508741 0c5.102205 0 10.203386 5.102205 10.203386 10.203386L503.709173 855.097172zM617.992009 855.097172c0 5.102205-5.102205 10.203386-10.203386 10.203386l-75.508741 0c-5.102205 0-10.203386-5.102205-10.203386-10.203386l0-55.100946c0-5.102205 5.102205-10.203386 10.203386-10.203386l75.508741 0c5.102205 0 10.203386 5.102205 10.203386 10.203386L617.992009 855.097172zM732.274846 855.097172c0 5.102205-5.102205 10.203386-10.203386 10.203386l-75.508741 0c-5.102205 0-10.203386-5.102205-10.203386-10.203386l0-55.100946c0-5.102205 5.102205-10.203386 10.203386-10.203386l75.508741 0c5.102205 0 10.203386 5.102205 10.203386 10.203386L732.274846 855.097172zM732.274846 758.161423c0 5.102205-5.102205 10.203386-10.203386 10.203386l-418.775782 0.010233c-5.102205 0-10.17371-5.102205-10.132778-10.203386l0.530073-70.773903c0.040932-5.102205 5.173836-10.203386 10.275018-10.193153l321.165674 0.336668c5.102205 0 10.203386-5.091972 10.203386-10.193153l0-88.772836c0-5.102205 5.102205-10.203386 10.203386-10.203386l76.528977 0c5.102205 0 10.203386 5.102205 10.203386 10.203386L732.272799 758.161423z" /></svg>