<?xml version="1.0" standalone="no"?><!DOCTYPE svg PUBLIC "-//W3C//DTD SVG 1.1//EN" "http://www.w3.org/Graphics/SVG/1.1/DTD/svg11.dtd"><svg class="icon" width="200px" height="200.00px" viewBox="0 0 1024 1024" version="1.1" xmlns="http://www.w3.org/2000/svg"><path fill="#333333" d="M882.375 838.497c7.026 8.219 10.473 17.233 10.473 27.174 0 11.135-3.977 20.679-11.798 28.501-7.026 7.29-16.967 11.93-27.969 11.93h-0.662c-4.64 0-9.147-0.796-13.521-2.254-6.627-2.254-12.196-5.966-16.438-11.003l0.132 0.928-217.002-218.593c-52.097 36.851-110.423 55.279-174.848 55.279-6.497 0-12.991-0.267-19.751-0.796-13.257-1.194-25.452-3.314-37.117-6.497-36.453-2.519-84.706-23.067-124.341-53.952-23.994-14.183-56.869-48.915-81.393-92.261-20.017-33.537-33.537-73.174-37.78-115.594 2.254 25.981-2.519-3.314-2.783-33.804 0.267 10.473 0 3.977 0-2.519 0-18.293 1.59-36.189 4.772-53.555 7.687-47.854 27.174-91.865 55.411-128.85 14.051-26.247 58.724-66.281 112.145-90.804-27.838 11.399 1.060-4.373 32.875-15.51 29.164-10.605 62.835-16.702 97.963-16.702 14.051 0 27.573 0.928 40.431 2.652 34.598 4.64 67.606 15.244 99.289 31.55 51.168 26.644 92.395 66.281 120.234 114.666-10.074-22.8 10.87 11.135 25.187 50.373s20.679 79.006 18.956 119.306c-2.386 67.341-25.452 127.921-69.462 181.74l217.797 218.593h-0.796zM689.1 437.369c0.267-3.977 0.397-8.484 0.397-13.124 0-33.273-6.627-64.955-18.558-93.852-14.051-37.117-36.72-69.86-65.485-95.975 22.404 21.475 7.29 5.302-9.942-9.013-32.080-26.91-71.318-46.397-114.532-55.145 27.307 4.64-9.677-4.11-48.517-4.11-10.473 0-20.812 0.662-30.887 1.857-1.724-0.132-4.64 0.267-7.29 0.928l-4.64 0.796c-47.325 7.556-89.213 27.44-123.15 56.338-25.452 15.907-58.989 59.387-76.489 110.423-2.119-7.29-14.051 32.609-16.173 76.489-1.987 43.877 5.966 84.573 24.126 121.956 22.138 48.65 58.061 87.756 102.866 113.207-0.132 5.833 45.733 27.174 96.372 33.537 1.59 3.182 39.372 5.302 77.417-1.194 32.875-5.966 62.172-17.364 88.418-33.273 9.147-1.724 42.288-27.174 68.269-58.592-10.074 16.835 18.691-18.691 37.117-59.918-26.511 47.19-15.51 30.357-6.759 12.327 16.835-32.346 26.91-70.523 27.44-110.954v7.29z"  /></svg>